<?xml version="1.0" encoding="UTF-8"?><svg id="Warstwa_1" xmlns="http://www.w3.org/2000/svg" viewBox="0 0 3000 785"><defs><style>.cls-1{opacity:.47;}.cls-2{fill:none;stroke:#f0d09d;stroke-width:2px;}</style></defs><g id="Group_1" class="cls-1"><line id="Line_1" class="cls-2" x1=".25" y1="1" x2="2999.75" y2="1"/><line id="Line_32" class="cls-2" y1="419.07" x2="3000" y2="419.07"/><line id="Line_16" class="cls-2" x1="0" y1="210" x2="2999.99" y2="210"/><line id="Line_24" class="cls-2" y1="628" x2="3000" y2="628"/><line id="Line_8" class="cls-2" y1="109" x2="3000" y2="109"/><line id="Line_28" class="cls-2" x1="0" y1="524" x2="2999.99" y2="524"/><line id="Line_12" class="cls-2" y1="314.55" x2="3000" y2="314.55"/><line id="Line_20" class="cls-2" x1=".25" y1="730" x2="2999.75" y2="730"/><line id="Line_4" class="cls-2" x1=".25" y1="55" x2="2999.75" y2="55"/><line id="Line_30" class="cls-2" y1="471.32" x2="3000" y2="471.32"/><line id="Line_14" class="cls-2" x1=".46" y1="262" x2="2999.54" y2="262"/><line id="Line_22" class="cls-2" y1="676" x2="3000" y2="676"/><line id="Line_6" class="cls-2" y1="163" x2="3000" y2="163"/><line id="Line_26" class="cls-2" x1="0" y1="576" x2="2999.99" y2="576"/><line id="Line_10" class="cls-2" y1="366.81" x2="3000" y2="366.81"/><line id="Line_18" class="cls-2" x1=".25" y1="784" x2="2999.75" y2="784"/><line id="Line_2" class="cls-2" y1="28" x2="3000" y2="28"/><line id="Line_31" class="cls-2" x1="0" y1="445" x2="2999.99" y2="445"/><line id="Line_15" class="cls-2" y1="236.16" x2="3000" y2="236.16"/><line id="Line_23" class="cls-2" x1=".25" y1="649" x2="2999.75" y2="649"/><line id="Line_7" class="cls-2" x1=".25" y1="136" x2="2999.75" y2="136"/><line id="Line_27" class="cls-2" x1="0" y1="549.71" x2="2999.99" y2="549.71"/><line id="Line_11" class="cls-2" y1="341" x2="3000" y2="341"/><line id="Line_19" class="cls-2" x1="0" y1="757" x2="2999.99" y2="757"/><line id="Line_3" class="cls-2" y1="82" x2="3000" y2="82"/><line id="Line_29" class="cls-2" x1="0" y1="497" x2="2999.99" y2="497"/><line id="Line_13" class="cls-2" y1="288.42" x2="3000" y2="288.42"/><line id="Line_21" class="cls-2" x1=".25" y1="703" x2="2999.75" y2="703"/><line id="Line_5" class="cls-2" y1="183.9" x2="3000" y2="183.9"/><line id="Line_25" class="cls-2" x1="0" y1="601.97" x2="2999.99" y2="601.97"/><line id="Line_9" class="cls-2" y1="393" x2="3000" y2="393"/></g></svg>