<svg xmlns="http://www.w3.org/2000/svg" width="88" height="88" viewBox="0 0 88 88">
  <g id="Group_11" data-name="Group 11" transform="translate(-82 -979)">
    <rect id="Rectangle_18" data-name="Rectangle 18" width="88" height="88" transform="translate(82 979)" fill="#fff"/>
    <g id="Miesniawka_Logo" data-name="Miesniawka Logo" transform="translate(105.24 996.487)">
      <path id="Path_1" data-name="Path 1" d="M691.512,1455.533c-.551-.178-1.081-.55-1.632-.785a5.247,5.247,0,0,0-4.355-.252c-.183.08-.359.182-.541.261a8.936,8.936,0,0,1-2.939.2.1.1,0,0,0,0,.189l.393.085c.433.22,1.069.622,1.075,1.078a5.281,5.281,0,0,1-.242,1.338A9.183,9.183,0,0,0,683,1458.9h0a.14.14,0,0,0,.14.161,9.9,9.9,0,0,1,2.057.241c1.394.3.26-.988.59-1.7a8.649,8.649,0,0,1,1.246-2.347,1.4,1.4,0,0,1,1.3-.432,12.3,12.3,0,0,1,1.931.582c.188.061,1.256.528,1.324.272a.113.113,0,0,0-.079-.142Z" transform="translate(-671.294 -1412.027)" fill="#3b3b3a"/>
      <path id="Path_2" data-name="Path 2" d="M422.016,341.262a9.575,9.575,0,0,1-.4-1.737,9.442,9.442,0,0,0-1.3-3.554l-.281-.393a6.135,6.135,0,0,1-.851-2.884,23.745,23.745,0,0,1-.038-3.634,18.148,18.148,0,0,0,.066-1.828.212.212,0,0,0-.181-.207.223.223,0,0,0-.239.17c-.008.032-.016.065-.025.094a3.226,3.226,0,0,1-1.345,2.329c-.077.047-.157.086-.231.131-1.095.713-1.91,1.785-2.981,2.513a3.538,3.538,0,0,1-1.29.619,5.557,5.557,0,0,1-1.454.207,13.715,13.715,0,0,1-2.973-.629,15.562,15.562,0,0,1-1.822-.566c-2.293-.991-2.163-3.294-1.923-5.415a27.06,27.06,0,0,0-.2-5.523.069.069,0,0,0-.065-.059.068.068,0,0,0-.071.066v0a3.847,3.847,0,0,1-.065.559,11.8,11.8,0,0,1-.775,2.869c-.066.163-.109.336-.179.5h0a15.745,15.745,0,0,1-1.067,1.955,20.546,20.546,0,0,1-2.7,3.535,5.082,5.082,0,0,1-2.609,1.72c-.5.074-.929.086-1.227-.3a4.373,4.373,0,0,1-.375-.683c-.021-.045-.079-.158-.1-.2a.741.741,0,0,1-.083-.241,11.708,11.708,0,0,1-.009-2.451c.021-.291.046-.584.073-.875a7.569,7.569,0,0,1,.507-2.124q.112-.278.214-.561a11.1,11.1,0,0,1,1.255-2.474l.012-.015c.676-.974,1.4-1.924,2.115-2.889a.061.061,0,0,0,0-.08.063.063,0,0,0-.089,0c-.092.086-.181.175-.271.263-1.361.862-4.412,5.688-5.53,6.805a1.258,1.258,0,0,1-1.324.4l-.028-.009c-.964-.307.25-3.191,1.03-4.827a20.541,20.541,0,0,1,1.584-1.991c.158-.139.312-.272.461-.4l.05-.028-.024.007c.5-.429.959-.795,1.381-1.113a8.476,8.476,0,0,1,4.284-1.67,14.436,14.436,0,0,1,3.569.052c.666.122.971-.145,1.089-.541a.015.015,0,0,0,0,0,1.454,1.454,0,0,0,.054-.319,2.944,2.944,0,0,1,.713-1.447,3.013,3.013,0,0,0,1.365-.721,11.66,11.66,0,0,0,1.184-1.465,6.312,6.312,0,0,1,1.035-1.23c1.858-1.469,2-4.234,2-5.047,0-.078,0-.2.01-.347a.723.723,0,0,0,.163.021.492.492,0,0,0,.072,0,.646.646,0,0,0,.453-.268,4.564,4.564,0,0,0,.167-2.005,3.979,3.979,0,0,0-.367-1.94.488.488,0,0,0-.411-.145.63.63,0,0,0-.268.108,13.01,13.01,0,0,0-.307-1.413c-.8-2.868-2.473-4.494-4.963-4.837a6.394,6.394,0,0,0-5.523,1.421c-1.608,1.518-2.386,4.214-2.134,7.4l0,.029.008.028a10.312,10.312,0,0,1,.224,1.336l.118,1a2.99,2.99,0,0,0,.137.58c.39,1.166,1.116,3.334,1.957,4.176a7.762,7.762,0,0,1,1.188,1.761c.047.087.094.174.141.256l-.164.3a.339.339,0,0,0-.039.058,7.056,7.056,0,0,1-2.8,2.459c-1.677.719-3.214,1.653-6.107,4.306-3.069,2.813-2.526,7.314-2.455,7.817a12.952,12.952,0,0,0,.517,1.886,1.2,1.2,0,0,1-.091.974,6.5,6.5,0,0,0-.842,2.461c-.032.308-.1,1.022-.136,1.339-.06.6-.123,1.2-.159,1.8-.017.351-.038.731-.023,1.113a1.5,1.5,0,0,1-.337,1c-.1.119-.184.245-.275.375a11.6,11.6,0,0,0-1.054,2.106,3.145,3.145,0,0,0-.265,1.192.122.122,0,0,0,.243,0,.02.02,0,0,1,.007.009s.006-.006.009-.008l.02-.026c.025-.033.1-.143.122-.177.168-.277.319-.566.465-.856a2.06,2.06,0,0,1,1.062-1l.034-.013a.809.809,0,0,1,1.039.463,8.4,8.4,0,0,0,.489,1.081,2.466,2.466,0,0,0,.648.8,4.634,4.634,0,0,0,2.295.512c0-.006.122-.012.124-.019h.354c.123,0,.34.056.462.065h0a3.046,3.046,0,0,0,.912-.038,1.013,1.013,0,0,1,.292-.033.116.116,0,0,0,.039-.006.146.146,0,0,0,.1-.194,8.87,8.87,0,0,1-.081-2.219c.026-.351.065-.828.058-1.177,0-.693-.116-1.643-.175-2.336a7.376,7.376,0,0,1-.053-.795,3.421,3.421,0,0,1,.573-1.77,4.824,4.824,0,0,1,2.362-1.771,23.137,23.137,0,0,0,2.865-1.362,2.314,2.314,0,0,1,1.335-.3h.019a1.757,1.757,0,0,1,1.1.525,4.188,4.188,0,0,0,1.307.9,16.045,16.045,0,0,0,1.914.621,13.893,13.893,0,0,0,3.157.647,5.917,5.917,0,0,0,1.642-.241,3.438,3.438,0,0,0,.8-.3,6.762,6.762,0,0,0,.592-.369,1.338,1.338,0,0,1,.68-.244c.594-.033.622.144.645.6a2.2,2.2,0,0,1-.521,1.371,14.974,14.974,0,0,1-1.048,1.075,14.518,14.518,0,0,1-1.495,1.518c-.015.009-.027.015-.041.023a.166.166,0,0,1-.027.011.124.124,0,0,0-.029.013c-.063.055-.03.04-.045.089a.152.152,0,0,0,.215.171,2.757,2.757,0,0,0,.519-.3c.149-.1.292-.2.434-.3s.286-.211.426-.32.279-.219.417-.329c.019-.015.038-.029.056-.045a1.582,1.582,0,0,1,.149-.111.714.714,0,0,0,.074-.055c.561-.374.8.006.874.611a3.331,3.331,0,0,1-1.207,2.977c-.86.709-1.8,1.394-2.25,1.718-.234.17-.282.206-.312.233a.3.3,0,0,0-.023.419l.292.212c.2.2.81.628,1.831-.177s4.9-1.949,5.043-.424c.009.031.018.06.029.091a.127.127,0,0,0,.1.081.129.129,0,0,0,.144-.124c.071-.726.244-1.434.376-2.144a25.707,25.707,0,0,0,.242-2.74,7.022,7.022,0,0,1,.523,1.125,16.461,16.461,0,0,1,.487,1.741,4.33,4.33,0,0,0,.734,1.76.138.138,0,0,0,.229-.145Zm-20.565-37.785a1.016,1.016,0,0,1-.928-.888c-.078-.491-.235-1.45-.307-2.422,0,0,0-.171.026-.443a9.238,9.238,0,0,1,.148-1.049,3.274,3.274,0,0,1,.961-1.73,5.842,5.842,0,0,1,5.037-1.264c2.825.388,4.455,2.607,4.867,6.607a1.464,1.464,0,0,0-.046.389c0,.607.131,2.1.131,2.1l.018.036c0,.239-.008.481-.018.729-.006.169-.01.3-.01.385,0,.745-.128,3.279-1.778,4.584a6.671,6.671,0,0,0-1.149,1.349,10.865,10.865,0,0,1-1.121,1.39,2.728,2.728,0,0,1-1.474.657.869.869,0,0,1-.787-.321c-.3-.735-.392-1.878-.544-2.154-.237-.432-.008-2.566.475-2.755.2-.077.214-.145.168-.2a.214.214,0,0,0-.059-.293,1.1,1.1,0,0,0-.964-.053,5.864,5.864,0,0,1-.061-.679c-.065-1.114,0-2.263-.116-3.386-.111-.533-.771-.611-1.2-.637a7.82,7.82,0,0,0-1.272.05Zm-6.611,38.34a.794.794,0,0,1-.973.609,4.2,4.2,0,0,1-.671-.22,1.424,1.424,0,0,1-.781-.768c-.413-.762-.624-1.681-1.045-2.484-.065-.123-.15-.235-.208-.364a2.345,2.345,0,0,1-.106-.357,14.728,14.728,0,0,1,.123-3.472c.06-.5.114-1.26.2-1.749.024-.118.052-.236.085-.353a2.827,2.827,0,0,1,.835-1.352l.018-.017a1.354,1.354,0,0,1,2.18.547,1.581,1.581,0,0,1,.058.222c.236,1.3.331,2.236.709,5.078a13.682,13.682,0,0,1-.426,4.678Z" transform="translate(-388.354 -294.998)" fill="#3b3b3a"/>
      <path id="Path_3" data-name="Path 3" d="M1081.79,734.768a20.755,20.755,0,0,0-.458-3.129c-.157-1.025-.1-2.09-.245-3.125a12.5,12.5,0,0,0-.349-1.567c-.085-.324-.269-.877-.334-1.259a14.02,14.02,0,0,0,.1-3.08,9.155,9.155,0,0,0-6.541-8.222c-.489-.171-1.012-.29-1.5-.423a18.191,18.191,0,0,1-2.849-1.034,9.4,9.4,0,0,1-4.529-3.768.124.124,0,0,0-.231.085c.912,2.891,4.749,4.54,7.441,5.324,4.2.953,7.188,3.669,7.577,8.094a13.926,13.926,0,0,1-.022,2.657.3.3,0,0,0-.057.182,7.988,7.988,0,0,0,.335,1.609,14.453,14.453,0,0,1,.311,1.5c.144,1.037.072,2.081.243,3.126a23.016,23.016,0,0,1,.5,3.062c.041.745.034,1.567.047,2.319,0,.116,0,.462,0,.57l0,.087c0,.027-.008.052,0,.052a.132.132,0,0,0,.212.159.573.573,0,0,0,.073-.13,9.116,9.116,0,0,0,.285-3.085Z" transform="translate(-1040.28 -694.05)" fill="#3b3b3a"/>
      <path id="Path_4" data-name="Path 4" d="M1264.75,1171.608c-.4.459-.944,1.036-1.581,1a6.573,6.573,0,0,1-1.018-.218,21.89,21.89,0,0,1-3.018-1.15l-.088-.025a.146.146,0,0,0-.136.249,1.953,1.953,0,0,0,.267.184,12.891,12.891,0,0,0,3.647,1.494c1.41.33,2.345-1.106,3-2.114a4.961,4.961,0,0,1,.614-.843.163.163,0,0,0,.042-.212c-.264-.462-1.483,1.418-1.725,1.629Z" transform="translate(-1227.247 -1138.133)" fill="#3b3b3a"/>
      <path id="Path_5" data-name="Path 5" d="M942.5,887.3l-.021.012c0,.011,0,.019-.008.034l-.1.3a.075.075,0,0,0,.057.1,4.452,4.452,0,0,0,1.612-.194,28.615,28.615,0,0,1,3.774-.673,5.606,5.606,0,0,1,.769,0,.149.149,0,0,0,.037-.295,5.481,5.481,0,0,0-1.6-.134,20,20,0,0,0-3.122.418,4.478,4.478,0,0,0-1.4.435Z" transform="translate(-922.251 -864.96)" fill="#3b3b3a"/>
      <path id="Path_6" data-name="Path 6" d="M725.1,909.274c-.839.025-1.845-.043-2.692-.089a.158.158,0,0,0-.068.305,8.524,8.524,0,0,0,1.076.312,8.726,8.726,0,0,0,2.814.221.918.918,0,0,0,.629-.358.276.276,0,0,0-.179-.363,5.116,5.116,0,0,0-1.58-.027Z" transform="translate(-710.11 -886.88)" fill="#3b3b3a"/>
      <path id="Path_7" data-name="Path 7" d="M1029.059,715.809a.135.135,0,0,0,.187.192c.793-.725.639-2.5.539-3.486a6.311,6.311,0,0,0-.22-1.1.36.36,0,0,0-.071-.13.154.154,0,0,0-.217.217c-.015-.006-.027-.038-.021-.02.011.051.025.168.033.221a16.161,16.161,0,0,1,.054,3.1A2.281,2.281,0,0,1,1029.059,715.809Z" transform="translate(-1005.76 -696.126)" fill="#3b3b3a"/>
      <path id="Path_8" data-name="Path 8" d="M867.751,515.1a.615.615,0,0,0,.116-.017c.2-.045.516-.142.718-.2a4.861,4.861,0,0,1,2.185-.232.172.172,0,0,0,.187-.082c.177-.31-.691-.463-.895-.485a3.933,3.933,0,0,0-2.3.582l-.037.023c-.011.006,0,0,0,0a.033.033,0,0,1,.016.006.2.2,0,1,0,0,.4Z" transform="translate(-850.148 -506.113)" fill="#3b3b3a"/>
      <path id="Path_9" data-name="Path 9" d="M835.16,1594.941c-.263,0-.513.01-.758,0a3.54,3.54,0,0,1-1.907-.519c-.061-.031-.14-.08-.213-.048a.106.106,0,0,0,.076.2.113.113,0,0,1-.067.008c-.008,0,0,.006,0,.007.005.024.054.1.064.123a1.914,1.914,0,0,0,2.1.7,2.66,2.66,0,0,0,.755-.3.095.095,0,0,0-.049-.176Z" transform="translate(-816.095 -1547.178)" fill="#3b3b3a"/>
    </g>
  </g>
</svg>
