<svg xmlns="http://www.w3.org/2000/svg" width="161.973" height="43.84" viewBox="0 0 161.973 43.84">
  <path id="Path_191" data-name="Path 191" d="M160.736,9.2,111.185,0l10.231,14.412-3.972.369-4.042.209c-2.7.153-5.387.279-8.077.46-2.7.084-5.394.1-8.084.2l-4.042.118-4.049-.021c-2.7-.007-5.394.028-8.091-.014-5.394-.146-10.788-.216-16.182-.523-10.788-.495-21.59-1.254-32.385-2.342l-8.105-.822-8.112-.92C10.858,10.482,5.443,9.813,0,9.053a197.291,197.291,0,0,0,31.7,9.025A261.973,261.973,0,0,0,64.423,22.6l4.126.307c.69.049,1.373.111,2.063.139l2.07.07,8.272.272c2.76.021,5.52-.042,8.279-.063l4.14-.07,4.14-.237c2.76-.153,5.513-.348,8.265-.537,2.753-.286,5.492-.634,8.237-.948,1.373-.16,2.746-.321,4.112-.516l4.084-.711.76-.139-3.408,18.085L160.729,9.185Z" transform="translate(161.973 38.23) rotate(178)" fill="#f0d09d" opacity="0.64"/>
</svg>
