<svg xmlns="http://www.w3.org/2000/svg" width="239.643" height="218.876" viewBox="0 0 239.643 218.876">
  <g id="Strzalki" transform="matrix(0.819, -0.574, 0.574, 0.819, 0, 118.669)" opacity="0.64">
    <g id="Group_38" data-name="Group 38">
      <path id="Path_190" data-name="Path 190" d="M157.845,96.046c-.48-.2-.97-.416-1.451-.619l-5.617-2.384-5.516-2.624-11.05-5.174-10.865-5.553-5.442-2.744L112.565,74c-3.557-1.977-7.169-3.834-10.7-5.857-3.5-2.079-7.04-4.084-10.56-6.125L88.665,60.5l-2.605-1.6-5.211-3.178q-20.829-12.763-41-26.737Q19.642,15.013,0,0C2.652,3.169,5.432,6.245,8.306,9.22c1.441,1.478,2.836,3.021,4.324,4.453l4.435,4.342c2.966,2.882,6.014,5.682,9.082,8.472,3.113,2.725,6.227,5.46,9.387,8.13A397.067,397.067,0,0,0,75.573,64.08c6.911,4.6,14.126,8.721,21.3,12.907,1.792,1.053,3.659,1.968,5.479,2.966l5.516,2.91,5.525,2.873c1.866.905,3.76,1.783,5.636,2.661l11.327,5.211,11.585,4.629,5.8,2.254,5.922,1.968c.8.268,1.617.527,2.421.795L140.54,122.331l66.353-7.816-51.9-42.064,2.836,23.6Z" fill="#f0d09d"/>
    </g>
  </g>
</svg>
